# File created by Blade
# Date/Time:  Wed Apr 08 17:39:35 2015
# Frame Rate: 120.000 fps
#------------------------------------------------------
:FULLY-SPECIFIED
:DEGREES
3138
root 9.576218 37.789985 2.820471 175.185404 -50.840282 -503.634044
Spine -10.475271 -4.421019 2.983380
Head 40.177240 -31.670257 15.692552
LeftShoulder -6.483047 18.368828 19.011008
LeftArm 23.133837 22.481387 -72.407680
LeftForeArm 15.096517 -0.000000 27.378571
LeftHand -12.985824 -0.000000 -10.579823
LeftHandThumb1 -26.253704 0.000000 33.147579
RightShoulder -39.857896 -47.557664 25.911245
RightArm 52.624827 -14.880699 54.153608
RightForeArm 5.479429 0.000000 8.699947
RightHand -4.904917 -0.000000 24.869818
RightHandThumb1 -24.326973 -0.000000 -32.862282
LeftUpLeg -32.640482 34.171320 -2.439905
LeftLeg 8.433978 -0.000000 -0.000000
LeftFoot -11.806579 9.246563 -5.461440
LeftToeBase 11.177027 -0.000000 -0.000000
RightUpLeg -55.994796 2.326659 -8.146891
RightLeg 121.482690 -0.000000 -0.000000
RightFoot 36.615214 -1.142788 20.309093
RightToeBase 33.269876 -0.000000 -0.000000
3139
root 9.579809 37.776951 2.813858 175.214250 -50.698225 -503.859137
Spine -10.317816 -4.151382 2.769758
Head 40.140296 -31.669075 15.653187
LeftShoulder -6.467790 18.328821 19.018776
LeftArm 23.117122 22.426683 -72.419213
LeftForeArm 15.101123 -0.000000 27.464564
LeftHand -13.076494 0.000000 -10.509635
LeftHandThumb1 -26.253704 0.000000 33.147579
RightShoulder -39.743847 -47.530362 25.755533
RightArm 52.634676 -14.853472 54.231164
RightForeArm 5.881437 -0.000000 8.760063
RightHand -4.640270 -0.000000 24.799768
RightHandThumb1 -24.326973 -0.000000 -32.862282
LeftUpLeg -32.416455 34.271233 -2.467194
LeftLeg 8.341092 -0.000000 -0.000000
LeftFoot -11.588337 9.489114 -4.815429
LeftToeBase 10.874816 -0.000000 -0.000000
RightUpLeg -55.868478 2.151751 -7.595533
RightLeg 122.484749 -0.000000 -0.000000
RightFoot 37.081397 -0.931748 20.605073
RightToeBase 33.786175 -0.000000 -0.000000
3140
root 9.587527 37.768373 2.799993 175.274040 -50.777748 -503.922248
Spine -10.381223 -4.114411 2.660706
Head 40.137990 -31.642415 15.593349
LeftShoulder -6.498428 18.358400 18.985244
LeftArm 23.128792 22.399160 -72.388048
LeftForeArm 15.093232 -0.000000 27.561066
LeftHand -13.079602 -0.000000 -10.558873
LeftHandThumb1 -26.253704 0.000000 33.147579
RightShoulder -39.717858 -47.553843 25.688541
RightArm 52.640370 -14.783609 54.272696
RightForeArm 6.260260 0.000000 8.888007
RightHand -4.346762 -0.000000 24.734575
RightHandThumb1 -24.326973 -0.000000 -32.862282
LeftUpLeg -32.415951 34.113702 -2.487359
LeftLeg 8.305152 -0.000000 -0.000000
LeftFoot -11.436314 9.748863 -4.493512
LeftToeBase 10.382519 -0.000000 -0.000000
RightUpLeg -55.790332 1.700197 -6.871520
RightLeg 123.388876 -0.000000 -0.000000
RightFoot 37.404051 -0.793603 21.012738
RightToeBase 34.558322 -0.000000 -0.000000
3141
root 9.593213 37.754565 2.800417 175.495677 -50.652115 -504.188629
Spine -10.421098 -3.889904 2.459212
Head 40.134888 -31.579979 15.522571
LeftShoulder -6.537925 18.362608 18.948671
LeftArm 23.130805 22.412101 -72.347981
LeftForeArm 15.059179 0.000000 27.638704
LeftHand -13.123924 -0.000000 -10.572511
LeftHandThumb1 -26.253704 0.000000 33.147579
RightShoulder -39.578870 -47.550908 25.516271
RightArm 52.578686 -14.725592 54.327901
RightForeArm 6.629314 0.000000 9.085186
RightHand -4.058036 -0.000000 24.665261
RightHandThumb1 -24.326973 -0.000000 -32.862282
LeftUpLeg -32.367763 34.139176 -2.613104
LeftLeg 8.226978 -0.000000 -0.000000
LeftFoot -11.399256 9.949444 -4.405865
LeftToeBase 10.202762 -0.000000 -0.000000
RightUpLeg -55.810304 1.416593 -6.270392
RightLeg 124.248550 -0.000000 -0.000000
RightFoot 37.680013 -0.715690 21.493935
RightToeBase 35.335353 -0.000000 -0.000000
3142
root 9.598412 37.740898 2.797339 175.711083 -50.615999 -504.407124
Spine -10.514134 -3.743240 2.279536
Head 40.149294 -31.534654 15.450329
LeftShoulder -6.543363 18.381779 18.919636
LeftArm 23.107138 22.392795 -72.333021
LeftForeArm 15.023429 -0.000000 27.709047
LeftHand -13.027512 -0.000000 -10.597761
LeftHandThumb1 -26.253704 0.000000 33.147579
RightShoulder -39.537589 -47.565927 25.441779
RightArm 52.594298 -14.645230 54.308430
RightForeArm 7.083956 -0.000000 9.211814
RightHand -3.734777 -0.000000 24.327366
RightHandThumb1 -24.326973 -0.000000 -32.862282
LeftUpLeg -32.358017 34.056744 -2.716131
LeftLeg 8.170607 -0.000000 -0.000000
LeftFoot -11.378876 10.202317 -4.168566
LeftToeBase 10.110414 -0.000000 -0.000000
RightUpLeg -55.807924 1.012194 -5.600021
RightLeg 125.017989 -0.000000 -0.000000
RightFoot 37.873205 -0.662307 22.004727
RightToeBase 36.267562 -0.000000 -0.000000
3143
root 9.605587 37.727575 2.800572 176.110745 -50.563324 -504.679995
Spine -10.779742 -3.587362 2.088041
Head 40.196938 -31.475697 15.339457
LeftShoulder -6.577431 18.438662 18.882980
LeftArm 23.111401 22.408281 -72.302205
LeftForeArm 14.992948 0.000000 27.732451
LeftHand -12.943830 -0.000000 -10.602515
LeftHandThumb1 -26.253704 0.000000 33.147579
RightShoulder -39.543398 -47.591681 25.391244
RightArm 52.570172 -14.517158 54.345194
RightForeArm 7.452634 -0.000000 9.392673
RightHand -3.404359 0.000000 24.009461
RightHandThumb1 -24.326973 -0.000000 -32.862282
LeftUpLeg -32.503749 33.938447 -2.923359
LeftLeg 8.118460 -0.000000 -0.000000
LeftFoot -11.347249 10.442830 -4.038684
LeftToeBase 9.979339 -0.000000 -0.000000
RightUpLeg -55.972482 0.566843 -4.901797
RightLeg 125.717956 -0.000000 -0.000000
RightFoot 37.999330 -0.679405 22.332386
RightToeBase 36.655816 -0.000000 -0.000000
3144
root 9.611227 37.713685 2.799676 176.375077 -50.559716 -504.874604
Spine -10.962192 -3.514887 1.958287
Head 40.274271 -31.392650 15.196918
LeftShoulder -6.656495 18.511310 18.799322
LeftArm 23.166777 22.441656 -72.235990
LeftForeArm 14.909217 -0.000000 27.711208
LeftHand -13.035482 0.000000 -10.611140
LeftHandThumb1 -26.253704 0.000000 33.147579
RightShoulder -39.491705 -47.606341 25.294692
RightArm 52.556751 -14.388097 54.362121
RightForeArm 7.903418 -0.000000 9.532481
RightHand -3.100080 0.000000 23.560116
RightHandThumb1 -24.326973 -0.000000 -32.862282
LeftUpLeg -32.552504 33.742633 -2.998867
LeftLeg 8.088958 -0.000000 -0.000000
LeftFoot -11.345420 10.678316 -3.972567
LeftToeBase 9.854324 -0.000000 -0.000000
RightUpLeg -56.018757 0.058966 -4.120037
RightLeg 126.327807 -0.000000 -0.000000
RightFoot 38.018426 -0.901438 22.873589
RightToeBase 36.920404 -0.000000 -0.000000
